<svg width="86" height="158" viewBox="0 0 86 158" fill="none" xmlns="http://www.w3.org/2000/svg">
<rect width="86" height="158" fill="#1F2937"/>
<path d="M32.5 105.5C32.5 105.224 32.7239 105 33 105H53C53.2761 105 53.5 105.224 53.5 105.5V116.5C53.5 116.776 53.2761 117 53 117H51C50.7239 117 50.5 116.776 50.5 116.5V107.682C50.5 107.406 50.2761 107.182 50 107.182H36C35.7239 107.182 35.5 107.406 35.5 107.682V116.5C35.5 116.776 35.2761 117 35 117H33C32.7239 117 32.5 116.776 32.5 116.5V105.5Z" fill="#0EA5E9"/>
<path d="M36.5 108.773C36.5 108.497 36.7239 108.273 37 108.273H44C44.2761 108.273 44.5 108.497 44.5 108.773V109.955C44.5 110.231 44.2761 110.455 44 110.455H37C36.7239 110.455 36.5 110.231 36.5 109.955V108.773Z" fill="#0EA5E9"/>
<path d="M45.5 108.773C45.5 108.497 45.7239 108.273 46 108.273H49C49.2761 108.273 49.5 108.497 49.5 108.773V109.955C49.5 110.231 49.2761 110.455 49 110.455H46C45.7239 110.455 45.5 110.231 45.5 109.955V108.773Z" fill="#0EA5E9"/>
<path d="M36.5 112.045C36.5 111.769 36.7239 111.545 37 111.545H39C39.2761 111.545 39.5 111.769 39.5 112.045V113.227C39.5 113.503 39.2761 113.727 39 113.727H37C36.7239 113.727 36.5 113.503 36.5 113.227V112.045Z" fill="#0EA5E9"/>
<path d="M40.5 112.045C40.5 111.769 40.7239 111.545 41 111.545H49C49.2761 111.545 49.5 111.769 49.5 112.045V113.227C49.5 113.503 49.2761 113.727 49 113.727H41C40.7239 113.727 40.5 113.503 40.5 113.227V112.045Z" fill="#0EA5E9"/>
<path d="M36.5 115.318C36.5 115.042 36.7239 114.818 37 114.818H49C49.2761 114.818 49.5 115.042 49.5 115.318V116.5C49.5 116.776 49.2761 117 49 117H37C36.7239 117 36.5 116.776 36.5 116.5V115.318Z" fill="#0EA5E9"/>
<path d="M52.3664 102C52.5069 102 52.6409 102.059 52.7357 102.163L53.3692 102.857C53.4534 102.949 53.5 103.069 53.5 103.194V103.5C53.5 103.776 53.2761 104 53 104H33C32.7239 104 32.5 103.776 32.5 103.5V103.194C32.5 103.069 32.5466 102.949 32.6308 102.857L33.2643 102.163C33.3591 102.059 33.4931 102 33.6336 102H52.3664Z" fill="#0EA5E9"/>
<path d="M12.286 128.36L10.9 128.018V127.28H14.032V135.92L15.418 136.262V137H10.9V136.262L12.286 135.92V128.36ZM12.034 124.382C12.034 124.034 12.136 123.758 12.34 123.554C12.544 123.35 12.814 123.248 13.15 123.248C13.498 123.248 13.774 123.35 13.978 123.554C14.182 123.758 14.284 124.034 14.284 124.382C14.284 124.718 14.182 124.988 13.978 125.192C13.774 125.396 13.498 125.498 13.15 125.498C12.802 125.498 12.526 125.402 12.322 125.21C12.13 125.006 12.034 124.73 12.034 124.382ZM17.8934 135.92V128.36L16.5074 128.018V127.28H19.0994L19.4954 129.08H19.5674C19.9274 128.468 20.4134 127.988 21.0254 127.64C21.6374 127.28 22.2914 127.1 22.9874 127.1C23.9834 127.1 24.7214 127.424 25.2014 128.072C25.4414 128.408 25.6094 128.882 25.7054 129.494C25.8134 130.094 25.8674 130.91 25.8674 131.942V135.92L27.2534 136.262V137H22.9154V136.262L24.1214 135.92V131.906C24.1214 131.126 24.0974 130.544 24.0494 130.16C24.0134 129.776 23.9414 129.476 23.8334 129.26C23.6894 128.972 23.4794 128.756 23.2034 128.612C22.9394 128.456 22.6214 128.378 22.2494 128.378C21.5534 128.378 20.9534 128.6 20.4494 129.044C19.9574 129.488 19.6874 130.178 19.6394 131.114V135.92L20.8454 136.262V137H16.5074V136.262L17.8934 135.92ZM33.4613 137.18H31.6073L28.4033 128.36L27.3953 128.018V127.28H31.4273V128.018L30.2393 128.36L32.7773 135.902H32.8493L35.3873 128.36L34.2713 128.018V127.28H37.6913V128.018L36.6473 128.36L33.4613 137.18ZM46.4968 132.248H40.2148C40.2148 133.124 40.3348 133.85 40.5748 134.426C40.8148 134.978 41.1568 135.374 41.6008 135.614C42.0448 135.854 42.5248 135.974 43.0408 135.974C43.6048 135.974 44.1208 135.86 44.5888 135.632C45.0568 135.392 45.4768 135.068 45.8488 134.66L46.4248 135.092C46.0048 135.668 45.4948 136.16 44.8948 136.568C44.2948 136.976 43.5208 137.18 42.5728 137.18C41.7448 137.18 41.0128 137.006 40.3768 136.658C39.7408 136.298 39.2548 135.776 38.9188 135.092C38.7388 134.72 38.6068 134.306 38.5228 133.85C38.4388 133.394 38.3968 132.908 38.3968 132.392C38.3968 130.712 38.7808 129.41 39.5488 128.486C40.3288 127.562 41.3848 127.1 42.7168 127.1C43.9408 127.1 44.8828 127.484 45.5428 128.252C46.2148 129.008 46.5508 130.058 46.5508 131.402C46.5508 131.522 46.5448 131.636 46.5328 131.744C46.5328 131.84 46.5208 132.008 46.4968 132.248ZM42.6088 128.072C41.1688 128.072 40.3768 129.17 40.2328 131.366H44.7328V130.772C44.7328 129.908 44.5468 129.242 44.1748 128.774C43.8148 128.306 43.2928 128.072 42.6088 128.072ZM49.3758 135.92V128.36L47.9898 128.018V127.28H50.5818L50.9778 129.08H51.0498C51.4098 128.468 51.8958 127.988 52.5078 127.64C53.1198 127.28 53.7738 127.1 54.4698 127.1C55.4658 127.1 56.2038 127.424 56.6838 128.072C56.9238 128.408 57.0918 128.882 57.1878 129.494C57.2958 130.094 57.3498 130.91 57.3498 131.942V135.92L58.7358 136.262V137H54.3978V136.262L55.6038 135.92V131.906C55.6038 131.126 55.5798 130.544 55.5318 130.16C55.4958 129.776 55.4238 129.476 55.3158 129.26C55.1718 128.972 54.9618 128.756 54.6858 128.612C54.4218 128.456 54.1038 128.378 53.7318 128.378C53.0358 128.378 52.4358 128.6 51.9318 129.044C51.4398 129.488 51.1698 130.178 51.1218 131.114V135.92L52.3278 136.262V137H47.9898V136.262L49.3758 135.92ZM59.2987 128.18V127.532L61.0447 127.28L61.2787 125.012L62.7907 124.796V127.28H65.0947V128.18H62.7907V134.606C62.7907 135.014 62.7967 135.296 62.8087 135.452C62.8207 135.596 62.8447 135.716 62.8807 135.812C62.9167 135.896 62.9827 135.956 63.0787 135.992C63.1747 136.016 63.3307 136.028 63.5467 136.028H64.8067V136.55C64.2307 136.766 63.7207 136.922 63.2767 137.018C62.8447 137.126 62.4967 137.18 62.2327 137.18C61.6927 137.18 61.3447 136.958 61.1887 136.514C61.1407 136.37 61.1047 136.184 61.0807 135.956C61.0567 135.728 61.0447 135.392 61.0447 134.948V128.18H59.2987ZM74.9195 132.05C74.9195 132.83 74.7995 133.574 74.5595 134.282C74.3315 134.978 74.0075 135.554 73.5875 136.01C73.2275 136.406 72.7835 136.7 72.2555 136.892C71.7275 137.084 71.1275 137.18 70.4555 137.18C69.7955 137.18 69.2075 137.09 68.6915 136.91C68.1755 136.718 67.7375 136.43 67.3775 136.046C66.9695 135.602 66.6515 135.056 66.4235 134.408C66.2075 133.748 66.0995 133.034 66.0995 132.266C66.0995 131.486 66.2135 130.742 66.4415 130.034C66.6695 129.314 66.9995 128.726 67.4315 128.27C67.8155 127.862 68.2595 127.568 68.7635 127.388C69.2795 127.196 69.8675 127.1 70.5275 127.1C71.1875 127.1 71.7815 127.196 72.3095 127.388C72.8375 127.568 73.2815 127.85 73.6415 128.234C74.0615 128.678 74.3795 129.236 74.5955 129.908C74.8115 130.568 74.9195 131.282 74.9195 132.05ZM68.0255 132.068C68.0255 132.8 68.0795 133.436 68.1875 133.976C68.3075 134.504 68.4695 134.942 68.6735 135.29C68.8775 135.59 69.1175 135.824 69.3935 135.992C69.6815 136.16 70.0535 136.244 70.5095 136.244C71.3375 136.244 71.9555 135.962 72.3635 135.398C72.5795 135.086 72.7355 134.654 72.8315 134.102C72.9395 133.55 72.9935 132.914 72.9935 132.194C72.9935 131.474 72.9335 130.844 72.8135 130.304C72.7055 129.764 72.5495 129.326 72.3455 128.99C72.1535 128.678 71.9075 128.444 71.6075 128.288C71.3195 128.12 70.9475 128.036 70.4915 128.036C69.6515 128.036 69.0455 128.312 68.6735 128.864C68.2415 129.536 68.0255 130.604 68.0255 132.068Z" fill="#0EA5E9"/>
</svg>
