<svg width="80" height="33" viewBox="0 0 80 33" fill="none" xmlns="http://www.w3.org/2000/svg">
<rect width="80" height="33" rx="6" fill="#E0F2FE"/>
<path fill-rule="evenodd" clip-rule="evenodd" d="M9 11.5C9 10.3954 9.89543 9.5 11 9.5H23C24.1046 9.5 25 10.3954 25 11.5V13.5C25 14.6046 24.1046 15.5 23 15.5H11C9.89543 15.5 9 14.6046 9 13.5V11.5ZM23 12.5C23 13.0523 22.5523 13.5 22 13.5C21.4477 13.5 21 13.0523 21 12.5C21 11.9477 21.4477 11.5 22 11.5C22.5523 11.5 23 11.9477 23 12.5Z" fill="#075985"/>
<path fill-rule="evenodd" clip-rule="evenodd" d="M9 19.5C9 18.3954 9.89543 17.5 11 17.5H23C24.1046 17.5 25 18.3954 25 19.5V21.5C25 22.6046 24.1046 23.5 23 23.5H11C9.89543 23.5 9 22.6046 9 21.5V19.5ZM23 20.5C23 21.0523 22.5523 21.5 22 21.5C21.4477 21.5 21 21.0523 21 20.5C21 19.9477 21.4477 19.5 22 19.5C22.5523 19.5 23 19.9477 23 20.5Z" fill="#075985"/>
<path d="M35.1989 14.2102C35.1534 13.7519 34.9583 13.3958 34.6136 13.142C34.2689 12.8883 33.8011 12.7614 33.2102 12.7614C32.8087 12.7614 32.4697 12.8182 32.1932 12.9318C31.9167 13.0417 31.7045 13.1951 31.5568 13.392C31.4129 13.589 31.3409 13.8125 31.3409 14.0625C31.3333 14.2708 31.3769 14.4527 31.4716 14.608C31.5701 14.7633 31.7045 14.8977 31.875 15.0114C32.0455 15.1212 32.2424 15.2178 32.4659 15.3011C32.6894 15.3807 32.928 15.4489 33.1818 15.5057L34.2273 15.7557C34.7348 15.8693 35.2008 16.0208 35.625 16.2102C36.0492 16.3996 36.4167 16.6326 36.7273 16.9091C37.0379 17.1856 37.2784 17.5114 37.4489 17.8864C37.6231 18.2614 37.7121 18.6913 37.7159 19.1761C37.7121 19.8883 37.5303 20.5057 37.1705 21.0284C36.8144 21.5473 36.2992 21.9508 35.625 22.2386C34.9545 22.5227 34.1458 22.6648 33.1989 22.6648C32.2595 22.6648 31.4413 22.5208 30.7443 22.233C30.0511 21.9451 29.5095 21.5189 29.1193 20.9545C28.733 20.3864 28.5303 19.6837 28.5114 18.8466H30.892C30.9186 19.2367 31.0303 19.5625 31.2273 19.8239C31.428 20.0814 31.6951 20.2765 32.0284 20.4091C32.3655 20.5379 32.7462 20.6023 33.1705 20.6023C33.5871 20.6023 33.9489 20.5417 34.2557 20.4205C34.5663 20.2992 34.8068 20.1307 34.9773 19.9148C35.1477 19.6989 35.233 19.4508 35.233 19.1705C35.233 18.9091 35.1553 18.6894 35 18.5114C34.8485 18.3333 34.625 18.1818 34.3295 18.0568C34.0379 17.9318 33.6799 17.8182 33.2557 17.7159L31.9886 17.3977C31.0076 17.1591 30.233 16.786 29.6648 16.2784C29.0966 15.7708 28.8144 15.0871 28.8182 14.2273C28.8144 13.5227 29.0019 12.9072 29.3807 12.3807C29.7633 11.8542 30.2879 11.4432 30.9545 11.1477C31.6212 10.8523 32.3788 10.7045 33.2273 10.7045C34.0909 10.7045 34.8447 10.8523 35.4886 11.1477C36.1364 11.4432 36.6402 11.8542 37 12.3807C37.3598 12.9072 37.5455 13.517 37.5568 14.2102H35.1989ZM43.9673 13.7727V15.5909H38.7116V13.7727H43.9673ZM39.9048 11.6818H42.3253V19.8182C42.3253 20.0417 42.3594 20.2159 42.4276 20.3409C42.4957 20.4621 42.5904 20.5473 42.7116 20.5966C42.8366 20.6458 42.9806 20.6705 43.1435 20.6705C43.2571 20.6705 43.3707 20.661 43.4844 20.642C43.598 20.6193 43.6851 20.6023 43.7457 20.5909L44.1264 22.392C44.0052 22.4299 43.8348 22.4735 43.6151 22.5227C43.3954 22.5758 43.1283 22.608 42.8139 22.6193C42.2306 22.642 41.7192 22.5644 41.2798 22.3864C40.8442 22.2083 40.5052 21.9318 40.2628 21.5568C40.0204 21.1818 39.901 20.7083 39.9048 20.1364V11.6818ZM49.3935 22.6705C48.5109 22.6705 47.7476 22.483 47.1037 22.108C46.4635 21.7292 45.9692 21.2027 45.6207 20.5284C45.2723 19.8504 45.098 19.0644 45.098 18.1705C45.098 17.2689 45.2723 16.4811 45.6207 15.8068C45.9692 15.1288 46.4635 14.6023 47.1037 14.2273C47.7476 13.8485 48.5109 13.6591 49.3935 13.6591C50.276 13.6591 51.0374 13.8485 51.6776 14.2273C52.3215 14.6023 52.8177 15.1288 53.1662 15.8068C53.5147 16.4811 53.6889 17.2689 53.6889 18.1705C53.6889 19.0644 53.5147 19.8504 53.1662 20.5284C52.8177 21.2027 52.3215 21.7292 51.6776 22.108C51.0374 22.483 50.276 22.6705 49.3935 22.6705ZM49.4048 20.7955C49.8063 20.7955 50.1416 20.6818 50.4105 20.4545C50.6795 20.2235 50.8821 19.9091 51.0185 19.5114C51.1586 19.1136 51.2287 18.661 51.2287 18.1534C51.2287 17.6458 51.1586 17.1932 51.0185 16.7955C50.8821 16.3977 50.6795 16.0833 50.4105 15.8523C50.1416 15.6212 49.8063 15.5057 49.4048 15.5057C48.9995 15.5057 48.6586 15.6212 48.3821 15.8523C48.1094 16.0833 47.9029 16.3977 47.7628 16.7955C47.6264 17.1932 47.5582 17.6458 47.5582 18.1534C47.5582 18.661 47.6264 19.1136 47.7628 19.5114C47.9029 19.9091 48.1094 20.2235 48.3821 20.4545C48.6586 20.6818 48.9995 20.7955 49.4048 20.7955ZM59.206 22.6705C58.312 22.6705 57.5431 22.4811 56.8991 22.1023C56.259 21.7197 55.7666 21.1894 55.4219 20.5114C55.081 19.8333 54.9105 19.053 54.9105 18.1705C54.9105 17.2765 55.0829 16.4924 55.4276 15.8182C55.776 15.1402 56.2704 14.6117 56.9105 14.233C57.5507 13.8504 58.312 13.6591 59.1946 13.6591C59.956 13.6591 60.6226 13.7973 61.1946 14.0739C61.7666 14.3504 62.2192 14.7386 62.5526 15.2386C62.8859 15.7386 63.0696 16.3258 63.1037 17H60.8196C60.7552 16.5644 60.5848 16.214 60.3082 15.9489C60.0355 15.6799 59.6776 15.5455 59.2344 15.5455C58.8594 15.5455 58.5317 15.6477 58.2514 15.8523C57.9749 16.053 57.759 16.3466 57.6037 16.733C57.4484 17.1193 57.3707 17.5871 57.3707 18.1364C57.3707 18.6932 57.4465 19.1667 57.598 19.5568C57.7533 19.947 57.9711 20.2443 58.2514 20.4489C58.5317 20.6534 58.8594 20.7557 59.2344 20.7557C59.5109 20.7557 59.759 20.6989 59.9787 20.5852C60.2022 20.4716 60.3859 20.3068 60.5298 20.0909C60.6776 19.8712 60.7741 19.608 60.8196 19.3011H63.1037C63.0658 19.9678 62.884 20.5549 62.5582 21.0625C62.2363 21.5663 61.7912 21.9602 61.223 22.2443C60.6548 22.5284 59.9825 22.6705 59.206 22.6705ZM66.8466 19.9886L66.8523 17.0852H67.2045L70 13.7727H72.7784L69.0227 18.1591H68.4489L66.8466 19.9886ZM64.6534 22.5V10.8636H67.0739V22.5H64.6534ZM70.108 22.5L67.5398 18.6989L69.1534 16.9886L72.9432 22.5H70.108Z" fill="#075985"/>
</svg>
