<svg width="137" height="31" viewBox="0 0 137 31" fill="none" xmlns="http://www.w3.org/2000/svg">
<path d="M32.8071 4.58063C32.9305 4.52904 33.0695 4.52904 33.1929 4.58063L43.258 8.78869C43.762 8.99938 43.6114 9.75 43.0652 9.75H22.9348C22.3886 9.75 22.238 8.99938 22.742 8.78869L32.8071 4.58063Z" fill="#164E63"/>
<path d="M22.5 11C22.5 10.7239 22.7239 10.5 23 10.5H43C43.2761 10.5 43.5 10.7239 43.5 11V12.7V21C43.5 21.2761 43.2761 21.5 43 21.5H41C40.7239 21.5 40.5 21.2761 40.5 21V13C40.5 12.7239 40.2761 12.5 40 12.5H26C25.7239 12.5 25.5 12.7239 25.5 13V21C25.5 21.2761 25.2761 21.5 25 21.5H23C22.7239 21.5 22.5 21.2761 22.5 21V12.7V11Z" fill="#164E63"/>
<rect x="26.5" y="13.5" width="8" height="2" rx="0.5" fill="#164E63"/>
<rect x="35.5" y="13.5" width="4" height="2" rx="0.5" fill="#164E63"/>
<rect x="26.5" y="16.5" width="3" height="2" rx="0.5" fill="#164E63"/>
<rect x="30.5" y="16.5" width="9" height="2" rx="0.5" fill="#164E63"/>
<rect x="26.5" y="19.5" width="13" height="2" rx="0.5" fill="#164E63"/>
<path d="M54.786 12.86L53.4 12.518V11.78H56.532V20.42L57.918 20.762V21.5H53.4V20.762L54.786 20.42V12.86ZM54.534 8.882C54.534 8.534 54.636 8.258 54.84 8.054C55.044 7.85 55.314 7.748 55.65 7.748C55.998 7.748 56.274 7.85 56.478 8.054C56.682 8.258 56.784 8.534 56.784 8.882C56.784 9.218 56.682 9.488 56.478 9.692C56.274 9.896 55.998 9.998 55.65 9.998C55.302 9.998 55.026 9.902 54.822 9.71C54.63 9.506 54.534 9.23 54.534 8.882ZM60.3934 20.42V12.86L59.0074 12.518V11.78H61.5994L61.9954 13.58H62.0674C62.4274 12.968 62.9134 12.488 63.5254 12.14C64.1374 11.78 64.7914 11.6 65.4874 11.6C66.4834 11.6 67.2214 11.924 67.7014 12.572C67.9414 12.908 68.1094 13.382 68.2054 13.994C68.3134 14.594 68.3674 15.41 68.3674 16.442V20.42L69.7534 20.762V21.5H65.4154V20.762L66.6214 20.42V16.406C66.6214 15.626 66.5974 15.044 66.5494 14.66C66.5134 14.276 66.4414 13.976 66.3334 13.76C66.1894 13.472 65.9794 13.256 65.7034 13.112C65.4394 12.956 65.1214 12.878 64.7494 12.878C64.0534 12.878 63.4534 13.1 62.9494 13.544C62.4574 13.988 62.1874 14.678 62.1394 15.614V20.42L63.3454 20.762V21.5H59.0074V20.762L60.3934 20.42ZM75.9613 21.68H74.1073L70.9033 12.86L69.8953 12.518V11.78H73.9273V12.518L72.7393 12.86L75.2773 20.402H75.3493L77.8873 12.86L76.7713 12.518V11.78H80.1913V12.518L79.1473 12.86L75.9613 21.68ZM88.9968 16.748H82.7148C82.7148 17.624 82.8348 18.35 83.0748 18.926C83.3148 19.478 83.6568 19.874 84.1008 20.114C84.5448 20.354 85.0248 20.474 85.5408 20.474C86.1048 20.474 86.6208 20.36 87.0888 20.132C87.5568 19.892 87.9768 19.568 88.3488 19.16L88.9248 19.592C88.5048 20.168 87.9948 20.66 87.3948 21.068C86.7948 21.476 86.0208 21.68 85.0728 21.68C84.2448 21.68 83.5128 21.506 82.8768 21.158C82.2408 20.798 81.7548 20.276 81.4188 19.592C81.2388 19.22 81.1068 18.806 81.0228 18.35C80.9388 17.894 80.8968 17.408 80.8968 16.892C80.8968 15.212 81.2808 13.91 82.0488 12.986C82.8288 12.062 83.8848 11.6 85.2168 11.6C86.4408 11.6 87.3828 11.984 88.0428 12.752C88.7148 13.508 89.0508 14.558 89.0508 15.902C89.0508 16.022 89.0448 16.136 89.0328 16.244C89.0328 16.34 89.0208 16.508 88.9968 16.748ZM85.1088 12.572C83.6688 12.572 82.8768 13.67 82.7328 15.866H87.2328V15.272C87.2328 14.408 87.0468 13.742 86.6748 13.274C86.3148 12.806 85.7928 12.572 85.1088 12.572ZM91.8758 20.42V12.86L90.4898 12.518V11.78H93.0818L93.4778 13.58H93.5498C93.9098 12.968 94.3958 12.488 95.0078 12.14C95.6198 11.78 96.2738 11.6 96.9698 11.6C97.9658 11.6 98.7038 11.924 99.1838 12.572C99.4238 12.908 99.5918 13.382 99.6878 13.994C99.7958 14.594 99.8498 15.41 99.8498 16.442V20.42L101.236 20.762V21.5H96.8978V20.762L98.1038 20.42V16.406C98.1038 15.626 98.0798 15.044 98.0318 14.66C97.9958 14.276 97.9238 13.976 97.8158 13.76C97.6718 13.472 97.4618 13.256 97.1858 13.112C96.9218 12.956 96.6038 12.878 96.2318 12.878C95.5358 12.878 94.9358 13.1 94.4318 13.544C93.9398 13.988 93.6698 14.678 93.6218 15.614V20.42L94.8278 20.762V21.5H90.4898V20.762L91.8758 20.42ZM101.799 12.68V12.032L103.545 11.78L103.779 9.512L105.291 9.296V11.78H107.595V12.68H105.291V19.106C105.291 19.514 105.297 19.796 105.309 19.952C105.321 20.096 105.345 20.216 105.381 20.312C105.417 20.396 105.483 20.456 105.579 20.492C105.675 20.516 105.831 20.528 106.047 20.528H107.307V21.05C106.731 21.266 106.221 21.422 105.777 21.518C105.345 21.626 104.997 21.68 104.733 21.68C104.193 21.68 103.845 21.458 103.689 21.014C103.641 20.87 103.605 20.684 103.581 20.456C103.557 20.228 103.545 19.892 103.545 19.448V12.68H101.799ZM117.419 16.55C117.419 17.33 117.299 18.074 117.059 18.782C116.831 19.478 116.507 20.054 116.087 20.51C115.727 20.906 115.283 21.2 114.755 21.392C114.227 21.584 113.627 21.68 112.955 21.68C112.295 21.68 111.707 21.59 111.191 21.41C110.675 21.218 110.237 20.93 109.877 20.546C109.469 20.102 109.151 19.556 108.923 18.908C108.707 18.248 108.599 17.534 108.599 16.766C108.599 15.986 108.713 15.242 108.941 14.534C109.169 13.814 109.499 13.226 109.931 12.77C110.315 12.362 110.759 12.068 111.263 11.888C111.779 11.696 112.367 11.6 113.027 11.6C113.687 11.6 114.281 11.696 114.809 11.888C115.337 12.068 115.781 12.35 116.141 12.734C116.561 13.178 116.879 13.736 117.095 14.408C117.311 15.068 117.419 15.782 117.419 16.55ZM110.525 16.568C110.525 17.3 110.579 17.936 110.687 18.476C110.807 19.004 110.969 19.442 111.173 19.79C111.377 20.09 111.617 20.324 111.893 20.492C112.181 20.66 112.553 20.744 113.009 20.744C113.837 20.744 114.455 20.462 114.863 19.898C115.079 19.586 115.235 19.154 115.331 18.602C115.439 18.05 115.493 17.414 115.493 16.694C115.493 15.974 115.433 15.344 115.313 14.804C115.205 14.264 115.049 13.826 114.845 13.49C114.653 13.178 114.407 12.944 114.107 12.788C113.819 12.62 113.447 12.536 112.991 12.536C112.151 12.536 111.545 12.812 111.173 13.364C110.741 14.036 110.525 15.104 110.525 16.568Z" fill="#164E63"/>
<rect x="0.5" y="0.5" width="136" height="30" rx="15" class="dark:text-white" stroke="#155E75"/>
</svg>
