<svg width="159" height="29" viewBox="0 0 159 29" fill="none" xmlns="http://www.w3.org/2000/svg">
<path d="M0 6.53333C0 6.01787 0.405076 5.6 0.904762 5.6H37.0952C37.5949 5.6 38 6.01787 38 6.53333V27.0667C38 27.5821 37.5949 28 37.0952 28H33.4762C32.9765 28 32.5714 27.5821 32.5714 27.0667V10.6061C32.5714 10.0906 32.1664 9.67273 31.6667 9.67273H6.33333C5.83365 9.67273 5.42857 10.0906 5.42857 10.6061V27.0667C5.42857 27.5821 5.0235 28 4.52381 28H0.904762C0.405076 28 0 27.5821 0 27.0667V6.53333Z" fill="#0EA5E9"/>
<path d="M7.2381 12.6424C7.2381 12.127 7.64317 11.7091 8.14286 11.7091H20.8095C21.3092 11.7091 21.7143 12.127 21.7143 12.6424V14.8485C21.7143 15.364 21.3092 15.7818 20.8095 15.7818H8.14286C7.64317 15.7818 7.2381 15.364 7.2381 14.8485V12.6424Z" fill="#0EA5E9"/>
<path d="M23.5238 12.6424C23.5238 12.127 23.9289 11.7091 24.4286 11.7091H29.8571C30.3568 11.7091 30.7619 12.127 30.7619 12.6424V14.8485C30.7619 15.364 30.3568 15.7818 29.8571 15.7818H24.4286C23.9289 15.7818 23.5238 15.364 23.5238 14.8485V12.6424Z" fill="#0EA5E9"/>
<path d="M7.2381 18.7515C7.2381 18.236 7.64317 17.8182 8.14286 17.8182H11.7619C12.2616 17.8182 12.6667 18.2361 12.6667 18.7515V20.9576C12.6667 21.473 12.2616 21.8909 11.7619 21.8909H8.14286C7.64317 21.8909 7.2381 21.473 7.2381 20.9576V18.7515Z" fill="#0EA5E9"/>
<path d="M14.4762 18.7515C14.4762 18.236 14.8813 17.8182 15.381 17.8182H29.8571C30.3568 17.8182 30.7619 18.2361 30.7619 18.7515V20.9576C30.7619 21.473 30.3568 21.8909 29.8571 21.8909H15.381C14.8813 21.8909 14.4762 21.473 14.4762 20.9576V18.7515Z" fill="#0EA5E9"/>
<path d="M7.2381 24.8606C7.2381 24.3451 7.64317 23.9273 8.14286 23.9273H29.8571C30.3568 23.9273 30.7619 24.3451 30.7619 24.8606V27.0667C30.7619 27.5821 30.3568 28 29.8571 28H8.14286C7.64317 28 7.2381 27.5821 7.2381 27.0667V24.8606Z" fill="#0EA5E9"/>
<path d="M35.9488 0C36.203 0 36.4455 0.11034 36.6169 0.304015L37.7634 1.59934C37.9156 1.77132 38 1.99578 38 2.22866V2.8C38 3.31547 37.5949 3.73333 37.0952 3.73333H0.904763C0.405077 3.73333 0 3.31547 0 2.8V2.22866C0 1.99578 0.0843933 1.77132 0.236608 1.59934L1.38309 0.304015C1.55451 0.11034 1.79701 0 2.05125 0H35.9488Z" fill="#0EA5E9"/>
<path d="M49.6513 28V11.6364H54.8608V28H49.6513ZM52.2614 9.7294C51.5298 9.7294 50.9013 9.48793 50.3757 9.00497C49.8501 8.51491 49.5874 7.92543 49.5874 7.23651C49.5874 6.55469 49.8501 5.9723 50.3757 5.48935C50.9013 4.99929 51.5298 4.75426 52.2614 4.75426C53 4.75426 53.6286 4.99929 54.147 5.48935C54.6726 5.9723 54.9354 6.55469 54.9354 7.23651C54.9354 7.92543 54.6726 8.51491 54.147 9.00497C53.6286 9.48793 53 9.7294 52.2614 9.7294Z" fill="#0EA5E9"/>
<path d="M63.3862 18.6676V28H58.1767V11.6364H63.1305V14.6406H63.3116C63.6738 13.6392 64.2917 12.8544 65.1653 12.2862C66.0389 11.7109 67.0794 11.4233 68.2868 11.4233C69.4373 11.4233 70.4352 11.6825 71.2804 12.201C72.1326 12.7124 72.7931 13.4297 73.2619 14.353C73.7377 15.2692 73.9721 16.3416 73.965 17.5703V28H68.7555V18.593C68.7626 17.6839 68.5318 16.9737 68.063 16.4624C67.6014 15.951 66.9586 15.6953 66.1348 15.6953C65.5879 15.6953 65.1049 15.8161 64.6859 16.0575C64.274 16.2919 63.9544 16.6293 63.7271 17.0696C63.5069 17.5099 63.3933 18.0426 63.3862 18.6676Z" fill="#0EA5E9"/>
<path d="M92.478 11.6364L86.8636 28H80.8977L75.294 11.6364H80.7805L83.7955 22.9077H83.9659L86.9915 11.6364H92.478Z" fill="#0EA5E9"/>
<path d="M101.597 28.3089C99.8857 28.3089 98.4084 27.9716 97.1655 27.2969C95.9297 26.6151 94.978 25.6456 94.3104 24.3885C93.6499 23.1243 93.3196 21.6222 93.3196 19.8821C93.3196 18.1918 93.6534 16.7145 94.321 15.4503C94.9886 14.179 95.9297 13.1918 97.1442 12.4886C98.3587 11.7784 99.7898 11.4233 101.438 11.4233C102.602 11.4233 103.668 11.6044 104.634 11.9666C105.599 12.3288 106.434 12.8651 107.137 13.5753C107.84 14.2855 108.387 15.1626 108.778 16.2067C109.168 17.2436 109.364 18.4332 109.364 19.7756V21.0753H95.1413V18.0497H104.516C104.509 17.4957 104.378 17.0021 104.122 16.5689C103.866 16.1357 103.515 15.7983 103.067 15.5568C102.627 15.3082 102.119 15.1839 101.544 15.1839C100.962 15.1839 100.44 15.3153 99.978 15.5781C99.5163 15.8338 99.1506 16.1854 98.8807 16.6328C98.6108 17.0732 98.4687 17.5739 98.4545 18.1349V21.2138C98.4545 21.8814 98.5859 22.4673 98.8487 22.9716C99.1115 23.4687 99.4844 23.8558 99.9673 24.1328C100.45 24.4098 101.026 24.5483 101.693 24.5483C102.155 24.5483 102.574 24.4844 102.95 24.3565C103.327 24.2287 103.65 24.0405 103.92 23.7919C104.19 23.5433 104.392 23.2379 104.527 22.8757L109.31 23.0142C109.112 24.0866 108.675 25.0206 108 25.8161C107.332 26.6044 106.455 27.2187 105.369 27.6591C104.282 28.0923 103.025 28.3089 101.597 28.3089Z" fill="#0EA5E9"/>
<path d="M117.234 18.6676V28H112.024V11.6364H116.978V14.6406H117.159C117.521 13.6392 118.139 12.8544 119.013 12.2862C119.887 11.7109 120.927 11.4233 122.134 11.4233C123.285 11.4233 124.283 11.6825 125.128 12.201C125.98 12.7124 126.641 13.4297 127.11 14.353C127.585 15.2692 127.82 16.3416 127.813 17.5703V28H122.603V18.593C122.61 17.6839 122.379 16.9737 121.911 16.4624C121.449 15.951 120.806 15.6953 119.982 15.6953C119.436 15.6953 118.953 15.8161 118.534 16.0575C118.122 16.2919 117.802 16.6293 117.575 17.0696C117.355 17.5099 117.241 18.0426 117.234 18.6676Z" fill="#0EA5E9"/>
<path d="M140.275 11.6364V15.4716H129.951V11.6364H140.275ZM132.114 7.71591H137.324V22.8544C137.324 23.174 137.373 23.4332 137.473 23.6321C137.579 23.8239 137.732 23.9624 137.931 24.0476C138.13 24.1257 138.368 24.1648 138.645 24.1648C138.843 24.1648 139.053 24.147 139.273 24.1115C139.5 24.0689 139.671 24.0334 139.784 24.005L140.573 27.7656C140.324 27.8366 139.973 27.9254 139.518 28.032C139.071 28.1385 138.534 28.206 137.909 28.2344C136.688 28.2912 135.64 28.1491 134.767 27.8082C133.9 27.4602 133.236 26.9205 132.775 26.1889C132.32 25.4574 132.1 24.5376 132.114 23.4297V7.71591Z" fill="#0EA5E9"/>
<path d="M150.395 28.3089C148.676 28.3089 147.199 27.9574 145.963 27.2543C144.735 26.544 143.787 25.5568 143.119 24.2926C142.458 23.0213 142.128 21.5476 142.128 19.8714C142.128 18.1882 142.458 16.7145 143.119 15.4503C143.787 14.179 144.735 13.1918 145.963 12.4886C147.199 11.7784 148.676 11.4233 150.395 11.4233C152.114 11.4233 153.588 11.7784 154.816 12.4886C156.052 13.1918 157 14.179 157.661 15.4503C158.328 16.7145 158.662 18.1882 158.662 19.8714C158.662 21.5476 158.328 23.0213 157.661 24.2926C157 25.5568 156.052 26.544 154.816 27.2543C153.588 27.9574 152.114 28.3089 150.395 28.3089ZM150.427 24.3778C151.052 24.3778 151.581 24.1861 152.015 23.8026C152.448 23.419 152.778 22.8864 153.005 22.2045C153.24 21.5227 153.357 20.7344 153.357 19.8395C153.357 18.9304 153.24 18.1349 153.005 17.4531C152.778 16.7713 152.448 16.2386 152.015 15.8551C151.581 15.4716 151.052 15.2798 150.427 15.2798C149.781 15.2798 149.234 15.4716 148.787 15.8551C148.346 16.2386 148.009 16.7713 147.775 17.4531C147.547 18.1349 147.434 18.9304 147.434 19.8395C147.434 20.7344 147.547 21.5227 147.775 22.2045C148.009 22.8864 148.346 23.419 148.787 23.8026C149.234 24.1861 149.781 24.3778 150.427 24.3778Z" fill="#0EA5E9"/>
</svg>
