<svg xmlns="http://www.w3.org/2000/svg" fill="none" viewBox="0 0 22 17">
  <path fill="#FEF3C7" d="M10.373.039a.5.5 0 0 1 .386 0l10.065 4.208c.504.21.353.961-.193.961H.501c-.547 0-.697-.75-.193-.961L10.373.039ZM.066 6.458a.5.5 0 0 1 .5-.5h20a.5.5 0 0 1 .5.5v10a.5.5 0 0 1-.5.5h-2a.5.5 0 0 1-.5-.5v-8a.5.5 0 0 0-.5-.5h-14a.5.5 0 0 0-.5.5v8a.5.5 0 0 1-.5.5h-2a.5.5 0 0 1-.5-.5v-10Z"/>
  <path fill="#FEF3C7" d="M4.066 9.458a.5.5 0 0 1 .5-.5h7a.5.5 0 0 1 .5.5v1a.5.5 0 0 1-.5.5h-7a.5.5 0 0 1-.5-.5v-1ZM13.066 9.458a.5.5 0 0 1 .5-.5h3a.5.5 0 0 1 .5.5v1a.5.5 0 0 1-.5.5h-3a.5.5 0 0 1-.5-.5v-1ZM4.066 12.458a.5.5 0 0 1 .5-.5h2a.5.5 0 0 1 .5.5v1a.5.5 0 0 1-.5.5h-2a.5.5 0 0 1-.5-.5v-1ZM8.066 12.458a.5.5 0 0 1 .5-.5h8a.5.5 0 0 1 .5.5v1a.5.5 0 0 1-.5.5h-8a.5.5 0 0 1-.5-.5v-1ZM4.066 15.458a.5.5 0 0 1 .5-.5h12a.5.5 0 0 1 .5.5v1a.5.5 0 0 1-.5.5h-12a.5.5 0 0 1-.5-.5v-1Z"/>
</svg>
