<svg class="fill-current dark:text-blue-400 w-24" xmlns="http://www.w3.org/2000/svg" fill="none" viewBox="0 0 90 18">
    <path d="M10.373.039a.5.5 0 0 1 .386 0l10.065 4.208c.504.21.353.961-.193.961H.501c-.547 0-.697-.75-.193-.961L10.373.039ZM.066 6.458a.5.5 0 0 1 .5-.5h20a.5.5 0 0 1 .5.5v10a.5.5 0 0 1-.5.5h-2a.5.5 0 0 1-.5-.5v-8a.5.5 0 0 0-.5-.5h-14a.5.5 0 0 0-.5.5v8a.5.5 0 0 1-.5.5h-2a.5.5 0 0 1-.5-.5v-10Z"/>
    <path d="M4.066 9.458a.5.5 0 0 1 .5-.5h7a.5.5 0 0 1 .5.5v1a.5.5 0 0 1-.5.5h-7a.5.5 0 0 1-.5-.5v-1ZM13.066 9.458a.5.5 0 0 1 .5-.5h3a.5.5 0 0 1 .5.5v1a.5.5 0 0 1-.5.5h-3a.5.5 0 0 1-.5-.5v-1ZM4.066 12.458a.5.5 0 0 1 .5-.5h2a.5.5 0 0 1 .5.5v1a.5.5 0 0 1-.5.5h-2a.5.5 0 0 1-.5-.5v-1ZM8.066 12.458a.5.5 0 0 1 .5-.5h8a.5.5 0 0 1 .5.5v1a.5.5 0 0 1-.5.5h-8a.5.5 0 0 1-.5-.5v-1ZM4.066 15.458a.5.5 0 0 1 .5-.5h12a.5.5 0 0 1 .5.5v1a.5.5 0 0 1-.5.5h-12a.5.5 0 0 1-.5-.5v-1ZM27.286 8.36 25.9 8.018V7.28h3.132v8.64l1.386.342V17H25.9v-.738l1.386-.342V8.36Zm-.252-3.978c0-.348.102-.624.306-.828.204-.204.474-.306.81-.306.348 0 .624.102.828.306.204.204.306.48.306.828 0 .336-.102.606-.306.81-.204.204-.48.306-.828.306s-.624-.096-.828-.288c-.192-.204-.288-.48-.288-.828ZM32.893 15.92V8.36l-1.386-.342V7.28H34.1l.396 1.8h.072a3.904 3.904 0 0 1 1.458-1.44 3.806 3.806 0 0 1 1.962-.54c.996 0 1.734.324 2.214.972.24.336.408.81.504 1.422.108.6.162 1.416.162 2.448v3.978l1.386.342V17h-4.338v-.738l1.206-.342v-4.014c0-.78-.024-1.362-.072-1.746-.036-.384-.108-.684-.216-.9a1.433 1.433 0 0 0-.63-.648c-.264-.156-.582-.234-.954-.234-.696 0-1.296.222-1.8.666-.492.444-.762 1.134-.81 2.07v4.806l1.206.342V17h-4.338v-.738l1.386-.342ZM48.461 17.18h-1.854l-3.204-8.82-1.008-.342V7.28h4.032v.738l-1.188.342 2.538 7.542h.072l2.538-7.542-1.116-.342V7.28h3.42v.738l-1.044.342-3.186 8.82ZM61.497 12.248h-6.282c0 .876.12 1.602.36 2.178.24.552.582.948 1.026 1.188.444.24.924.36 1.44.36.564 0 1.08-.114 1.548-.342a4.44 4.44 0 0 0 1.26-.972l.576.432a6.173 6.173 0 0 1-1.53 1.476c-.6.408-1.374.612-2.322.612-.828 0-1.56-.174-2.196-.522a3.548 3.548 0 0 1-1.458-1.566 4.86 4.86 0 0 1-.396-1.242 8.045 8.045 0 0 1-.126-1.458c0-1.68.384-2.982 1.152-3.906.78-.924 1.836-1.386 3.168-1.386 1.224 0 2.166.384 2.826 1.152.672.756 1.008 1.806 1.008 3.15a3.1 3.1 0 0 1-.018.342c0 .096-.012.264-.036.504Zm-3.888-4.176c-1.44 0-2.232 1.098-2.376 3.294h4.5v-.594c0-.864-.186-1.53-.558-1.998-.36-.468-.882-.702-1.566-.702ZM64.376 15.92V8.36l-1.386-.342V7.28h2.592l.396 1.8h.072a3.904 3.904 0 0 1 1.458-1.44 3.806 3.806 0 0 1 1.962-.54c.996 0 1.734.324 2.214.972.24.336.408.81.504 1.422.108.6.162 1.416.162 2.448v3.978l1.386.342V17h-4.338v-.738l1.206-.342v-4.014c0-.78-.024-1.362-.072-1.746-.036-.384-.108-.684-.216-.9a1.433 1.433 0 0 0-.63-.648c-.264-.156-.582-.234-.954-.234-.696 0-1.296.222-1.8.666-.492.444-.762 1.134-.81 2.07v4.806l1.206.342V17H62.99v-.738l1.386-.342ZM74.299 8.18v-.648l1.746-.252.234-2.268 1.512-.216V7.28h2.304v.9H77.79v6.426c0 .408.006.69.018.846.012.144.036.264.072.36a.328.328 0 0 0 .198.18c.096.024.252.036.468.036h1.26v.522c-.576.216-1.086.372-1.53.468-.432.108-.78.162-1.044.162-.54 0-.888-.222-1.044-.666a2.703 2.703 0 0 1-.108-.558 10.433 10.433 0 0 1-.036-1.008V8.18h-1.746ZM89.92 12.05c0 .78-.12 1.524-.36 2.232-.228.696-.553 1.272-.972 1.728-.36.396-.804.69-1.332.882-.528.192-1.129.288-1.8.288-.66 0-1.249-.09-1.764-.27a3.395 3.395 0 0 1-1.314-.864c-.409-.444-.727-.99-.954-1.638a6.848 6.848 0 0 1-.325-2.142c0-.78.114-1.524.343-2.232.228-.72.558-1.308.99-1.764a3.366 3.366 0 0 1 1.331-.882c.516-.192 1.105-.288 1.764-.288.66 0 1.254.096 1.782.288.529.18.972.462 1.332.846.42.444.738 1.002.954 1.674.216.66.325 1.374.325 2.142Zm-6.895.018c0 .732.054 1.368.162 1.908.12.528.282.966.487 1.314.203.3.444.534.72.702.287.168.66.252 1.115.252.829 0 1.447-.282 1.855-.846.215-.312.371-.744.468-1.296.108-.552.162-1.188.162-1.908s-.06-1.35-.18-1.89c-.108-.54-.264-.978-.468-1.314a1.879 1.879 0 0 0-.739-.702c-.287-.168-.66-.252-1.115-.252-.84 0-1.447.276-1.819.828-.431.672-.648 1.74-.648 3.204Z"/>
</svg>
